<svg width="24" height="23" viewBox="0 0 24 23" fill="none" xmlns="http://www.w3.org/2000/svg">
<path d="M23.9926 1.58054C23.9926 1.36727 23.9416 1.1578 23.8449 0.973422C23.7481 0.789043 23.609 0.636322 23.4418 0.530772C23.2745 0.425222 23.085 0.370604 22.8925 0.372466C22.7 0.374329 22.5114 0.432605 22.3458 0.541376C21.7072 0.962857 21.0196 1.28565 20.302 1.50079C19.2779 0.527208 17.9718 -0.00550308 16.6223 4.28705e-05C15.1421 0.00200826 13.7205 0.641223 12.6576 1.78272C11.5948 2.92422 10.9739 4.47866 10.9261 6.11783C8.00744 5.60227 5.36216 3.91447 3.49474 1.37633C3.38222 1.22526 3.23859 1.10634 3.07594 1.02959C2.91329 0.952836 2.73638 0.920497 2.5601 0.935293C2.38385 0.951454 2.21381 1.01491 2.06465 1.12017C1.91549 1.22543 1.7917 1.36933 1.70397 1.53946C1.25412 2.40934 0.995779 3.3845 0.949921 4.38576C0.904064 5.38701 1.07198 6.38614 1.44005 7.302L1.43787 7.30321C1.27208 7.41608 1.13526 7.57426 1.04053 7.76258C0.945804 7.9509 0.896354 8.16304 0.896926 8.37863C0.895176 8.556 0.905017 8.73328 0.926372 8.90908C1.03775 10.4292 1.64577 11.8522 2.63644 12.9111C2.56921 13.0531 2.52822 13.2085 2.51586 13.3683C2.5035 13.528 2.52003 13.6889 2.56446 13.8415C2.99631 15.3328 3.91491 16.5918 5.14046 17.3722C3.89518 17.9057 2.55061 18.0916 1.2252 17.9136C0.98 17.8798 0.731714 17.9393 0.521004 18.0822C0.310295 18.2252 0.149651 18.4432 0.0653842 18.7006C-0.0188831 18.9579 -0.0217793 19.2394 0.05717 19.4988C0.136119 19.7582 0.292234 19.9802 0.499947 20.1285C2.77954 21.7549 5.43371 22.6195 8.14508 22.6188C11.2198 22.6572 14.2197 21.5687 16.6782 19.5226C19.1368 17.4765 20.9161 14.5876 21.7394 11.3052C22.1244 9.87547 22.3209 8.39162 22.3229 6.89963L22.3218 6.65796C22.8913 5.97743 23.3324 5.17779 23.6193 4.30591C23.9062 3.43403 24.0331 2.50747 23.9926 1.58054ZM20.3871 5.46171C20.2068 5.6976 20.1154 6.00137 20.1319 6.30996C20.1428 6.50933 20.1417 6.70992 20.1417 6.89963C20.1394 8.16014 19.9726 9.41365 19.6466 10.6213C18.9744 13.4145 17.4756 15.877 15.3903 17.6143C13.3049 19.3517 10.7536 20.2633 8.14508 20.2034C7.20839 20.2035 6.27495 20.0815 5.36404 19.8397C6.52587 19.4245 7.61216 18.7847 8.57259 17.9498C8.74969 17.7956 8.87933 17.5843 8.94369 17.3451C9.00804 17.1059 9.00396 16.8505 8.93201 16.614C8.86005 16.3774 8.72375 16.1714 8.54183 16.0242C8.35991 15.877 8.1413 15.7958 7.91605 15.7917C7.00946 15.776 6.14378 15.371 5.50145 14.662C5.66432 14.6281 5.82609 14.5858 5.98677 14.5351C6.22237 14.4609 6.42856 14.301 6.57214 14.0811C6.71571 13.8612 6.78831 13.5942 6.77824 13.3231C6.76816 13.0519 6.676 12.7925 6.51659 12.5864C6.35719 12.3804 6.13983 12.2398 5.89952 12.1873C5.3733 12.0721 4.87814 11.824 4.45254 11.4623C4.02695 11.1006 3.68239 10.635 3.44567 10.1017C3.6428 10.1316 3.84119 10.1501 4.04005 10.1573C4.27636 10.1616 4.50777 10.0824 4.70073 9.93119C4.89368 9.77998 5.03816 9.5646 5.1132 9.31629C5.18523 9.06588 5.18162 8.79628 5.10289 8.54835C5.02417 8.30043 4.87464 8.0877 4.67696 7.94242C4.19702 7.58845 3.80383 7.10811 3.5326 6.54443C3.26137 5.98074 3.12059 5.35132 3.12285 4.71254C3.12285 4.63279 3.12503 4.55183 3.12939 4.47329C5.57394 6.99947 8.74481 8.48861 12.0832 8.67829C12.2518 8.68538 12.4196 8.6499 12.574 8.57454C12.7284 8.49918 12.8652 8.38591 12.9743 8.24329C13.0823 8.0998 13.1588 7.93052 13.1977 7.74874C13.2367 7.56696 13.2371 7.37765 13.1989 7.19567C13.1365 6.90713 13.1047 6.61151 13.1041 6.31479C13.1052 5.28135 13.4763 4.2906 14.1358 3.55984C14.7954 2.82909 15.6896 2.41799 16.6223 2.41671C17.1024 2.41514 17.5775 2.52385 18.0177 2.73599C18.4578 2.94813 18.8536 3.25908 19.1798 3.64921C19.3056 3.79919 19.4639 3.91101 19.6397 3.97404C19.8156 4.03707 20.003 4.0492 20.1842 4.00929C20.6323 3.9128 21.0739 3.78281 21.5061 3.62021C21.2114 4.2882 20.8348 4.9079 20.3871 5.46171Z" fill="#4F4F4F"/>
</svg>
