<svg width="22" height="23" viewBox="0 0 22 23" fill="none" xmlns="http://www.w3.org/2000/svg">
<path d="M11 8.05C10.1248 8.05 9.28542 8.41348 8.66655 9.06048C8.04768 9.70748 7.7 10.585 7.7 11.5C7.7 12.415 8.04768 13.2925 8.66655 13.9395C9.28542 14.5865 10.1248 14.95 11 14.95C11.8752 14.95 12.7146 14.5865 13.3335 13.9395C13.9523 13.2925 14.3 12.415 14.3 11.5C14.3 10.585 13.9523 9.70748 13.3335 9.06048C12.7146 8.41348 11.8752 8.05 11 8.05ZM11 5.75C12.4587 5.75 13.8576 6.3558 14.8891 7.43414C15.9205 8.51247 16.5 9.97501 16.5 11.5C16.5 13.025 15.9205 14.4875 14.8891 15.5659C13.8576 16.6442 12.4587 17.25 11 17.25C9.54131 17.25 8.14236 16.6442 7.11091 15.5659C6.07946 14.4875 5.5 13.025 5.5 11.5C5.5 9.97501 6.07946 8.51247 7.11091 7.43414C8.14236 6.3558 9.54131 5.75 11 5.75ZM18.15 5.4625C18.15 5.84375 18.0051 6.20938 17.7473 6.47897C17.4894 6.74855 17.1397 6.9 16.775 6.9C16.4103 6.9 16.0606 6.74855 15.8027 6.47897C15.5449 6.20938 15.4 5.84375 15.4 5.4625C15.4 5.08125 15.5449 4.71562 15.8027 4.44603C16.0606 4.17645 16.4103 4.025 16.775 4.025C17.1397 4.025 17.4894 4.17645 17.7473 4.44603C18.0051 4.71562 18.15 5.08125 18.15 5.4625ZM11 2.3C8.2786 2.3 7.8342 2.30805 6.5681 2.3667C5.7057 2.40925 5.1271 2.53 4.5903 2.7485C4.14108 2.92093 3.73495 3.1973 3.4023 3.55695C3.05801 3.90471 2.79329 4.32927 2.6279 4.79895C2.4189 5.36245 2.3034 5.9662 2.2638 6.86665C2.2066 8.13625 2.1989 8.58015 2.1989 11.5C2.1989 14.3462 2.2066 14.8097 2.2627 16.1333C2.3034 17.0338 2.4189 17.6399 2.6268 18.1999C2.8138 18.7001 3.0338 19.0601 3.399 19.4419C3.7697 19.8283 4.114 20.0594 4.587 20.2503C5.1304 20.47 5.709 20.5919 6.567 20.6333C7.7814 20.6931 8.206 20.7 10.9989 20.7C13.7214 20.7 14.1647 20.6919 15.4308 20.6333C16.291 20.5907 16.8696 20.47 17.4075 20.2526C17.8563 20.0794 18.2623 19.8031 18.5955 19.4442C18.9662 19.0578 19.1873 18.6978 19.3699 18.2022C19.5789 17.6364 19.6955 17.0315 19.7351 16.1322C19.7923 14.8637 19.7989 14.4187 19.7989 11.5C19.7989 8.6549 19.7912 8.1903 19.7351 6.86665C19.6944 5.96735 19.5778 5.36015 19.3699 4.79895C19.2041 4.32977 18.9399 3.90538 18.5966 3.55695C18.2641 3.19682 17.858 2.92004 17.4086 2.74735C16.8696 2.52885 16.291 2.4081 15.4308 2.3667C14.2175 2.3069 13.794 2.3 11 2.3ZM11 0C13.9887 0 14.3616 0.0114999 15.5353 0.0689999C16.7057 0.1265 17.5043 0.31855 18.205 0.60375C18.931 0.89585 19.5426 1.29145 20.1542 1.9297C20.7135 2.50458 21.1463 3.19998 21.4225 3.9675C21.6942 4.70005 21.879 5.53495 21.934 6.7597C21.9857 7.9856 22 8.37545 22 11.5C22 14.6245 21.989 15.0144 21.934 16.2403C21.879 17.465 21.6942 18.2988 21.4225 19.0325C21.1471 19.8004 20.7142 20.496 20.1542 21.0703C19.6042 21.6549 18.939 22.1073 18.205 22.3962C17.5043 22.6803 16.7057 22.8735 15.5353 22.931C14.3616 22.9851 13.9887 23 11 23C8.0113 23 7.6384 22.9885 6.4647 22.931C5.2943 22.8735 4.4968 22.6803 3.795 22.3962C3.06056 22.1081 2.39528 21.6556 1.8458 21.0703C1.28637 20.4955 0.853556 19.8001 0.5775 19.0325C0.3047 18.2999 0.121 17.465 0.0660002 16.2403C0.0132002 15.0144 0 14.6245 0 11.5C0 8.37545 0.0110002 7.9856 0.0660002 6.7597C0.121 5.5338 0.3047 4.7012 0.5775 3.9675C0.85276 3.19951 1.28568 2.50392 1.8458 1.9297C2.39544 1.34462 3.06067 0.892089 3.795 0.60375C4.4957 0.31855 5.2932 0.1265 6.4647 0.0689999C7.6384 0.0149499 8.0113 0 11 0Z" fill="#4F4F4F"/>
</svg>
