<svg width="24" height="25" viewBox="0 0 24 25" fill="none" xmlns="http://www.w3.org/2000/svg">
<path d="M22.6 25C19.7333 25 16.9391 24.3343 14.2173 23.0028C11.4956 21.6713 9.08444 19.912 6.984 17.725C4.88356 15.538 3.19467 13.0264 1.91733 10.1903C0.64 7.35417 0.000888889 4.44352 0 1.45833C0 1.04167 0.133333 0.694444 0.4 0.416667C0.666667 0.138889 1 0 1.4 0H6.8C7.11111 0 7.38889 0.104167 7.63333 0.3125C7.87778 0.520833 8.02222 0.787037 8.06667 1.11111L8.93333 5.97222C8.97778 6.2963 8.972 6.59167 8.916 6.85833C8.86 7.125 8.73244 7.36204 8.53333 7.56944L5.33333 10.9722C6.26667 12.6389 7.43333 14.2014 8.83333 15.6597C10.2333 17.1181 11.7778 18.3796 13.4667 19.4444L16.6 16.1806C16.8 15.9722 17.0613 15.8162 17.384 15.7125C17.7067 15.6088 18.0231 15.5796 18.3333 15.625L22.9333 16.5972C23.2444 16.6667 23.5 16.8231 23.7 17.0667C23.9 17.3102 24 17.5935 24 17.9167V23.5417C24 23.9583 23.8667 24.3056 23.6 24.5833C23.3333 24.8611 23 25 22.6 25Z" fill="#4F4F4F"/>
</svg>
