<svg width="31" height="31" viewBox="0 0 31 31" fill="none" xmlns="http://www.w3.org/2000/svg">
<path fill-rule="evenodd" clip-rule="evenodd" d="M15.4999 0.833313C7.39992 0.833313 0.833252 7.39998 0.833252 15.5C0.833252 23.6 7.39992 30.1666 15.4999 30.1666C23.5999 30.1666 30.1666 23.6 30.1666 15.5C30.1666 7.39998 23.5999 0.833313 15.4999 0.833313ZM3.49992 15.5C3.49992 18.2866 4.45059 20.852 6.04392 22.8893C7.16289 21.4198 8.60645 20.229 10.2618 19.4097C11.9172 18.5905 13.7396 18.165 15.5866 18.1666C17.4097 18.1649 19.2091 18.5793 20.8478 19.3784C22.4865 20.1774 23.9212 21.3399 25.0426 22.7773C26.1978 21.2621 26.9757 19.4936 27.3118 17.6181C27.6479 15.7426 27.5325 13.814 26.9752 11.992C26.418 10.1699 25.4349 8.50671 24.1072 7.14003C22.7796 5.77335 21.1456 4.74246 19.3404 4.13266C17.5353 3.52286 15.6108 3.35168 13.7264 3.63328C11.8419 3.91488 10.0516 4.64117 8.50361 5.75205C6.95558 6.86293 5.69433 8.32647 4.82422 10.0216C3.95412 11.7167 3.50016 13.5946 3.49992 15.5ZM15.4999 27.5C12.7452 27.5041 10.0736 26.5564 7.93725 24.8173C8.79716 23.5863 9.9417 22.5812 11.2735 21.8876C12.6053 21.1939 14.085 20.8322 15.5866 20.8333C17.0695 20.8321 18.5312 21.1847 19.8505 21.8619C21.1697 22.539 22.3084 23.5211 23.1719 24.7266C21.019 26.5222 18.3034 27.5039 15.4999 27.5Z" fill="#4F4F4F"/>
</svg>
