<svg width="77" height="76" viewBox="0 0 77 76" fill="none" xmlns="http://www.w3.org/2000/svg">
<path d="M67.4133 34.0001C68.0476 38.1415 67.7679 42.3698 66.5934 46.3939C65.4189 50.4181 63.3775 54.1423 60.6097 57.3104C57.842 60.4784 54.4137 63.0149 50.5609 64.7452C46.708 66.4755 42.5222 67.3585 38.2916 67.3334C21.8791 67.3334 8.83329 54.4167 8.83329 38.1667C8.83329 21.9167 21.8791 9.00008 38.2916 9.00008C41.2375 9.00008 44.057 9.41675 46.7083 10.2084V1.62508C44.015 1.00008 41.1954 0.666748 38.2916 0.666748C17.25 0.666748 0.416626 17.3334 0.416626 38.1667C0.416626 59.0001 17.25 75.6667 38.2916 75.6667C43.6265 75.6887 48.9053 74.5899 53.7796 72.4429C58.6539 70.296 63.0128 67.1497 66.5684 63.2118C70.1241 59.274 72.7956 54.6342 74.4066 49.5987C76.0176 44.5632 76.5314 39.2467 75.9141 34.0001H67.4133Z" fill="white"/>
</svg>
