<svg width="59" height="80" viewBox="0 0 59 80" fill="none" xmlns="http://www.w3.org/2000/svg">
<path d="M8.66671 71.1666C4.08337 71.1666 0.333374 74.9166 0.333374 79.4999H58.6667C58.6667 74.9166 54.9167 71.1666 50.3334 71.1666H33.6667V62.8332H46.1667C50.75 62.8332 54.5 59.0832 54.5 54.4999H21.1667C14.25 54.4999 8.66671 48.9166 8.66671 41.9999C8.6743 39.8377 9.24264 37.7144 10.3162 35.8375C11.3897 33.9606 12.9318 32.3943 14.7917 31.2916C16.5 33.7499 19.2084 35.4582 22.4167 35.7082C25.3334 35.9582 28.0834 34.9166 30.125 33.1249L32.5834 39.8332L36.5 38.4166L37.9167 42.3332L45.75 39.4999L44.3334 35.5833L48.25 34.1666L36.8334 2.83325L32.9167 4.24992L31.5 0.333252L23.6667 3.16659L25.0834 7.08325L21.1667 8.54158L23.5 14.9999C18.625 14.8333 14.375 18.1249 13.1667 22.7499C9.3679 24.3357 6.12275 27.0093 3.83932 30.4344C1.55589 33.8596 0.336112 37.8834 0.333374 41.9999C0.333374 53.4999 9.66671 62.8332 21.1667 62.8332V71.1666H8.66671ZM33.0834 10.8333L40.2084 30.4166L36.2917 31.8333L29.1667 12.2499L33.0834 10.8333ZM23.25 21.1666C25.5417 21.1666 27.4167 23.0416 27.4167 25.3333C27.4167 27.6249 25.5417 29.4999 23.25 29.4999C20.9584 29.4999 19.0834 27.6249 19.0834 25.3333C19.0834 23.0416 20.9584 21.1666 23.25 21.1666Z" fill="white"/>
</svg>
