<svg width="92" height="87" viewBox="0 0 92 87" fill="none" xmlns="http://www.w3.org/2000/svg">
<path d="M29.6666 83.6666C23.8451 83.6666 18.882 81.6347 14.7775 77.5708C10.673 73.5069 8.62212 68.5944 8.62492 62.8333V25.3333C6.31034 25.3333 4.32822 24.5166 2.67855 22.8833C1.02888 21.2499 0.205454 19.2888 0.208259 16.9999V8.66659C0.208259 6.37493 1.03309 4.41243 2.68276 2.77909C4.33243 1.14576 6.31315 0.330481 8.62492 0.333259H50.7083C53.0228 0.333259 55.005 1.14993 56.6546 2.78326C58.3043 4.41659 59.1277 6.3777 59.1249 8.66659V16.9999C59.1249 19.2916 58.3001 21.2541 56.6504 22.8874C55.0008 24.5208 53.02 25.336 50.7083 25.3333V37.9374C47.7624 39.8124 45.2543 42.1569 43.1838 44.9708C41.1133 47.7846 39.6586 50.961 38.8197 54.4999H33.8749C32.6826 54.4999 31.6824 54.0999 30.8744 53.2999C30.0664 52.4999 29.6638 51.511 29.6666 50.3333C29.6666 49.1527 30.0706 48.1624 30.8786 47.3624C31.6866 46.5624 32.6854 46.1638 33.8749 46.1666H42.2916V41.9999H33.8749C32.6826 41.9999 31.6824 41.5999 30.8744 40.7999C30.0664 39.9999 29.6638 39.011 29.6666 37.8333C29.6666 36.6527 30.0706 35.6624 30.8786 34.8624C31.6866 34.0624 32.6854 33.6638 33.8749 33.6666H42.2916V25.3333H17.0416V62.8333C17.0416 66.3055 18.269 69.2569 20.7239 71.6874C23.1787 74.118 26.1596 75.3333 29.6666 75.3333C31.7708 75.3333 33.6996 74.8819 35.453 73.9791C37.2065 73.0763 38.6794 71.8263 39.8718 70.2291C40.4329 71.618 41.0642 72.9374 41.7655 74.1874C42.4669 75.4374 43.3086 76.6527 44.2906 77.8333C42.3968 79.6388 40.2043 81.0624 37.7129 82.1041C35.2216 83.1458 32.5395 83.6666 29.6666 83.6666ZM38.8197 66.9999H33.8749C32.6826 66.9999 31.6824 66.5999 30.8744 65.7999C30.0664 64.9999 29.6638 64.011 29.6666 62.8333C29.6666 61.6527 30.0706 60.6624 30.8786 59.8624C31.6866 59.0624 32.6854 58.6638 33.8749 58.6666H38.1885C38.0482 60.0555 38.03 61.4444 38.1338 62.8333C38.2376 64.2221 38.4662 65.611 38.8197 66.9999ZM8.62492 16.9999H50.7083V8.66659H8.62492V16.9999ZM65.4374 71.1666C68.3833 71.1666 70.8732 70.1596 72.9072 68.1458C74.9412 66.1319 75.9583 63.6666 75.9583 60.7499C75.9583 57.8333 74.9412 55.368 72.9072 53.3541C70.8732 51.3402 68.3833 50.3333 65.4374 50.3333C62.4916 50.3333 60.0017 51.3402 57.9676 53.3541C55.9336 55.368 54.9166 57.8333 54.9166 60.7499C54.9166 63.6666 55.9336 66.1319 57.9676 68.1458C60.0017 70.1596 62.4916 71.1666 65.4374 71.1666ZM65.4374 79.4999C60.177 79.4999 55.705 77.6763 52.0213 74.0291C48.3376 70.3819 46.4971 65.9555 46.4999 60.7499C46.4999 55.5416 48.3418 51.1138 52.0255 47.4666C55.7092 43.8194 60.1798 41.9971 65.4374 41.9999C70.6978 41.9999 75.1699 43.8235 78.8536 47.4708C82.5373 51.118 84.3777 55.5444 84.3749 60.7499C84.3749 62.5555 84.1294 64.2916 83.6385 65.9583C83.1475 67.6249 82.411 69.2221 81.4291 70.7499L89.8457 79.0833C90.6173 79.8471 91.0031 80.8194 91.0031 81.9999C91.0031 83.1805 90.6173 84.1527 89.8457 84.9166C89.0742 85.6805 88.0923 86.0624 86.8999 86.0624C85.7076 86.0624 84.7256 85.6805 83.9541 84.9166L75.5374 76.5833C73.9944 77.5555 72.3812 78.2847 70.6978 78.7708C69.0145 79.2569 67.261 79.4999 65.4374 79.4999Z" fill="white"/>
</svg>
