<svg width="113" height="90" viewBox="0 0 113 90" fill="none" xmlns="http://www.w3.org/2000/svg">
<path d="M28.5 0C27.3975 0 26.4 0.650391 25.945 1.66992L21.605 11.4082L11.6825 7.59375C10.65 7.18945 9.4775 7.45312 8.7075 8.22656C7.9375 9 7.675 10.1777 8.0775 11.2148L11.875 21.1816L2.1625 25.5586C1.1475 26.0156 0.5 27.0176 0.5 28.125C0.5 29.2324 1.1475 30.2344 2.1625 30.6914L11.8575 35.0508L8.06 45.0176C7.6575 46.0547 7.92 47.2324 8.69 48.0059C9.46 48.7793 10.6325 49.043 11.665 48.6387L21.5875 44.8242L25.9275 54.5625C26.3825 55.582 27.38 56.2324 28.4825 56.2324C29.585 56.2324 30.5825 55.582 31.0375 54.5625L35.3775 44.8242L45.3 48.6387C46.3325 49.043 47.505 48.7793 48.275 48.0059C49.045 47.2324 49.3075 46.0547 48.905 45.0176L45.1075 35.0508L54.8025 30.6914C55.8175 30.2344 56.465 29.2324 56.465 28.125C56.465 27.0176 55.8175 26.0156 54.8025 25.5586L45.1075 21.1992L48.905 11.2324C49.3075 10.1953 49.045 9.01758 48.275 8.24414C47.505 7.4707 46.3325 7.20703 45.3 7.61133L35.395 11.4082L31.055 1.66992C30.6 0.650391 29.6025 0 28.5 0ZM28.5 16.875C31.4704 16.875 34.3192 18.0603 36.4196 20.17C38.52 22.2798 39.7 25.1413 39.7 28.125C39.7 31.1087 38.52 33.9702 36.4196 36.08C34.3192 38.1897 31.4704 39.375 28.5 39.375C25.5296 39.375 22.6808 38.1897 20.5804 36.08C18.48 33.9702 17.3 31.1087 17.3 28.125C17.3 25.1413 18.48 22.2798 20.5804 20.17C22.6808 18.0603 25.5296 16.875 28.5 16.875ZM34.1 28.125C34.1 26.6332 33.51 25.2024 32.4598 24.1475C31.4096 23.0926 29.9852 22.5 28.5 22.5C27.0148 22.5 25.5904 23.0926 24.5402 24.1475C23.49 25.2024 22.9 26.6332 22.9 28.125C22.9 29.6168 23.49 31.0476 24.5402 32.1025C25.5904 33.1574 27.0148 33.75 28.5 33.75C29.9852 33.75 31.4096 33.1574 32.4598 32.1025C33.51 31.0476 34.1 29.6168 34.1 28.125ZM88.7 30.9375C88.7 27.8262 91.2025 25.3125 94.3 25.3125C97.3975 25.3125 99.9 27.8262 99.9 30.9375V40.3242C97.31 41.6777 95.7 44.3848 95.7 48.1641C95.7 51.1172 98.5 55.8984 102.245 59.9766C103.26 61.0664 104.957 61.0664 105.955 59.9766C109.7 55.8984 112.5 51.0996 112.5 48.1641C112.5 44.3848 110.89 41.6602 108.3 40.3242V30.9375C108.3 23.168 102.035 16.875 94.3 16.875C86.565 16.875 80.3 23.168 80.3 30.9375V34.9277C78.585 34.1719 76.695 33.75 74.7 33.75C66.965 33.75 60.7 40.043 60.7 47.8125V51.5742C58.11 52.9277 56.5 55.6348 56.5 59.4141C56.5 62.3672 59.3 67.1484 63.045 71.2266C64.06 72.3164 65.7575 72.3164 66.755 71.2266C70.5 67.1484 73.3 62.3496 73.3 59.4141C73.3 55.6348 71.69 52.9102 69.1 51.5742V47.8125C69.1 44.7012 71.6025 42.1875 74.7 42.1875C77.7975 42.1875 80.3 44.7012 80.3 47.8125V78.75H6.1C3.0025 78.75 0.5 81.2637 0.5 84.375C0.5 87.4863 3.0025 90 6.1 90H106.9C109.997 90 112.5 87.4863 112.5 84.375C112.5 81.2637 109.997 78.75 106.9 78.75H88.7V30.9375Z" fill="white"/>
</svg>
