<svg width="90" height="84" viewBox="0 0 90 84" fill="none" xmlns="http://www.w3.org/2000/svg">
<path d="M89.7917 9.08325V1.58325L82.2167 0.749918C81.7958 0.749918 79.2708 0.333252 75.0625 0.333252C57.8083 0.333252 45.1833 5.33325 38.0292 14.0833C32.5583 10.7499 24.9833 8.66659 16.1458 8.66659C11.9375 8.66659 8.99168 9.08325 8.99168 9.08325L0.99585 10.3333L1.41668 17.4166C1.83752 29.9166 8.15002 53.6666 30.0333 53.6666H30.875V67.8333C14.8833 69.9166 1.41668 75.3333 1.41668 75.3333V83.6666H85.5833V75.3333C85.5833 75.3333 72.1167 69.9166 56.125 67.8333V54.4999C82.6375 54.0833 89.7917 24.4999 89.7917 9.08325ZM43.5 66.9999H39.2917V43.6666C39.2917 43.6666 38.45 29.4999 26.6667 29.4999C26.6667 29.4999 32.9792 32.8333 34.6625 44.9166C32.9792 45.3333 31.2958 45.3333 30.0333 45.3333C10.675 45.3333 9.83335 17.4166 9.83335 17.4166C9.83335 17.4166 12.3583 16.9999 16.1458 16.9999C24.1417 16.9999 37.1875 18.6666 40.975 29.9166C43.0792 11.1666 64.5417 8.66659 75.0625 8.66659C78.85 8.66659 81.375 9.08325 81.375 9.08325C81.375 9.08325 81.375 46.5833 54.8625 46.5833H51.9167C51.9167 38.2499 60.3333 25.7499 60.3333 25.7499C47.7083 29.9166 47.7083 46.1666 47.7083 46.1666V66.9999H43.5Z" fill="white"/>
</svg>
